<?xml version="1.0" encoding="UTF-8"?><svg xmlns="http://www.w3.org/2000/svg" xmlns:xlink="http://www.w3.org/1999/xlink" version="1.1" x="0px" y="0px" viewBox="0 0 48 48" xml:space="preserve"><style type="text/css">.st0{fill:#FFD4C3;stroke:#504B46;stroke-linecap:round;stroke-linejoin:round;stroke-miterlimit:10;} .st1{fill:#FFC258;} .st2{fill:#4F4B45;} .st3{fill:#FABFA5;} .st4{fill:none;stroke:#504B46;stroke-linecap:round;stroke-linejoin:round;stroke-miterlimit:10;} .Graphic_x0020_Style{opacity:0.15;fill:#45413C;} .st5{fill:#FFE500;} .st6{fill:#EBCB00;} .st7{fill:none;stroke:#45413C;stroke-linecap:round;stroke-linejoin:round;stroke-miterlimit:10;} .st8{fill:#FFF48C;} .st9{fill:#FFB0CA;stroke:#45413C;stroke-linecap:round;stroke-linejoin:round;stroke-miterlimit:10;} .st10{fill:#FF87AF;stroke:#45413C;stroke-linecap:round;stroke-linejoin:round;stroke-miterlimit:10;} .st11{fill:#FFFFFF;stroke:#45413C;stroke-linecap:round;stroke-linejoin:round;stroke-miterlimit:10;} .st12{opacity:0.15;fill:#45413C;} .st13{fill:#FFAA54;} .st14{fill:#FFF48C;stroke:#45413C;stroke-linecap:round;stroke-linejoin:round;stroke-miterlimit:10;} .st15{fill:#FF6242;} .st16{fill:#FF866E;} .st17{fill:#4AEFF7;stroke:#45413C;stroke-linecap:round;stroke-linejoin:round;stroke-miterlimit:10;} .st18{fill:#FFFACF;} .st19{fill:#FFFFFF;} .st20{fill:none;stroke:#45413C;stroke-linejoin:round;stroke-miterlimit:10;} .st21{fill:#FF866E;stroke:#45413C;stroke-linecap:round;stroke-linejoin:round;stroke-miterlimit:10;} .st22{fill:#DABFF5;stroke:#45413C;stroke-linejoin:round;stroke-miterlimit:10;} .st23{fill:#EDDBFF;} .st24{fill:#BF8256;stroke:#45413C;stroke-miterlimit:10;} .st25{fill:#DEA47A;} .st26{fill:#45413C;stroke:#45413C;stroke-linecap:round;stroke-linejoin:round;stroke-miterlimit:10;} .st27{fill:none;stroke:#45413C;stroke-miterlimit:10;} .st28{fill:#915E3A;} .st29{fill:#E8F4FA;} .st30{fill:#525252;stroke:#45413C;stroke-linecap:round;stroke-linejoin:round;stroke-miterlimit:10;} .st31{fill:#87898C;} .st32{fill:#656769;} .st33{fill:none;stroke:#45413C;stroke-linecap:round;stroke-miterlimit:10;} .st34{fill:#00DBA8;} .st35{fill:#00AD85;} .st36{fill:#BF8DF2;} .st37{fill:#DABFF5;} .st38{fill:#00F5BC;} .st39{fill:#4CF4FC;stroke:#45413C;stroke-linecap:round;stroke-linejoin:round;stroke-miterlimit:10;} .st40{fill:#E04122;} .st41{fill:#00B8F0;} .st42{fill:#4ACFFF;} .st43{fill:#B89558;stroke:#45413C;stroke-linecap:round;stroke-linejoin:round;stroke-miterlimit:10;} .st44{fill:#FF6242;stroke:#45413C;stroke-linecap:round;stroke-linejoin:round;stroke-miterlimit:10;} .st45{fill:#009FD9;} .st46{fill:#FFFFFF;stroke:#45413C;stroke-linejoin:round;stroke-miterlimit:10;} .st47{fill:none;stroke:#48CF3E;stroke-linecap:round;stroke-linejoin:round;stroke-miterlimit:10;} .st48{fill:none;stroke:#FF4064;stroke-linecap:round;stroke-linejoin:round;stroke-miterlimit:10;} .st49{fill:none;stroke:#FFB700;stroke-linecap:round;stroke-linejoin:round;stroke-miterlimit:10;} .st50{fill:none;stroke:#00AED9;stroke-linecap:round;stroke-linejoin:round;stroke-miterlimit:10;} .st51{fill:#F0F0F0;} .st52{fill:#8CFFE4;stroke:#45413C;stroke-linecap:round;stroke-linejoin:round;stroke-miterlimit:10;} .st53{fill:#E5FFF9;} .st54{fill:#6DD627;} .st55{fill:#46B000;} .st56{fill:#9CEB60;} .st57{fill:#E0E0E0;} .st58{fill:#DAEDF7;} .st59{fill:#C0DCEB;} .st60{fill:#ADC4D9;} .st61{fill:#ADC4D9;stroke:#45413C;stroke-linecap:round;stroke-linejoin:round;stroke-miterlimit:10;} .st62{fill:#00DFEB;stroke:#45413C;stroke-linecap:round;stroke-linejoin:round;stroke-miterlimit:10;} .st63{fill:#627B8C;stroke:#45413C;stroke-linecap:round;stroke-linejoin:round;stroke-miterlimit:10;} .st64{fill:#FF8A14;} .st65{fill:#FF8A14;stroke:#45413C;stroke-linecap:round;stroke-linejoin:round;stroke-miterlimit:10;} .st66{fill:#6DD627;stroke:#45413C;stroke-linecap:round;stroke-linejoin:round;stroke-miterlimit:10;} .st67{fill:#45413C;} .st68{fill:#8CA4B8;} .st69{fill:#00DBA8;stroke:#45413C;stroke-linecap:round;stroke-linejoin:round;stroke-miterlimit:10;} .st70{fill:#00B8F0;stroke:#45413C;stroke-linecap:round;stroke-linejoin:round;stroke-miterlimit:10;} .st71{fill:#FFE500;stroke:#45413C;stroke-linecap:round;stroke-linejoin:round;stroke-miterlimit:10;} .st72{fill:#F0F0F0;stroke:#45413C;stroke-linecap:round;stroke-linejoin:round;stroke-miterlimit:10;} .st73{fill:#525252;} .st74{fill:#E5F8FF;} .st75{fill:none;stroke:#FF6242;stroke-linecap:round;stroke-linejoin:round;stroke-miterlimit:10;} .st76{fill:url(#XMLID_10_);} .st77{fill:url(#XMLID_11_);} .st78{fill:url(#XMLID_12_);} .st79{fill:url(#XMLID_13_);} .st80{fill:#E5FEFF;stroke:#45413C;stroke-linecap:round;stroke-linejoin:round;stroke-miterlimit:10;} .st81{fill:#EBCB00;stroke:#45413C;stroke-linecap:round;stroke-linejoin:round;stroke-miterlimit:10;} .st82{fill:#BDBEC0;stroke:#45413C;stroke-linecap:round;stroke-linejoin:round;stroke-miterlimit:10;} .st83{fill:#F0D5A8;} .st84{fill:#DEBB7E;} .st85{fill:#B89558;} .st86{fill:#FFFCE5;} .st87{fill:#FF87AF;} .st88{fill:#4ACFFF;stroke:#45413C;stroke-linecap:round;stroke-linejoin:round;stroke-miterlimit:10;} .st89{fill:#BDBEC0;} .st90{fill:#FFDA8F;} .st91{fill:#FFBE3D;} .st92{fill:#FFE9BD;} .st93{fill:#FF6196;} .st94{fill:#E0366F;} .st95{fill:#E0366F;stroke:#45413C;stroke-linecap:round;stroke-linejoin:round;stroke-miterlimit:10;} .st96{fill:#45413C;stroke:#45413C;stroke-miterlimit:10;}</style><symbol id="New_Symbol_14" viewBox="-6.5 -6.5 13 13"><path class="st0" d="M0-6c2.2 0 4.1 1.5 4.7 3.5C6.3-2.5 6.4 0 5 0v1c0 2.8-2.2 5-5 5s-5-2.2-5-5V0c-1.4 0-1.3-2.5.2-2.5C-4.1-4.5-2.2-6 0-6z" fill="#FFD4C3" stroke="#504B46" stroke-linecap="round" stroke-linejoin="round" stroke-miterlimit="10"/><circle class="st1" cx="-1.6" cy="-0.1" r="0.1" fill="#FFC258"/><path class="st2" d="M-1.6.5c-.3 0-.6-.3-.6-.6s.2-.7.6-.7c.3 0 .6.3.6.7s-.3.6-.6.6z" fill="#4F4B45"/><circle class="st1" cx="1.6" cy="-0.1" r="0.1" fill="#FFC258"/><path class="st2" d="M1.6.5C1.3.5 1 .2 1-.1s.3-.6.6-.6.6.3.6.6-.2.6-.6.6z" fill="#4F4B45"/><circle class="st3" cx="-3" cy="-1.5" r="0.5" fill="#FABFA5"/><circle class="st3" cx="3" cy="-1.5" r="0.5" fill="#FABFA5"/><path class="st4" d="M-1.2-3c.8-.5 1.7-.5 2.5 0" fill="none" stroke="#504B46" stroke-linecap="round" stroke-linejoin="round" stroke-miterlimit="10"/></symbol><g id="Icons"><g id="XMLID_2_"><circle id="XMLID_7676_" class="st5" cx="20.8" cy="21.5" r="20" fill="#FFE500"/><path id="XMLID_7673_" class="st6" d="M20.8 1.5c-11 0-20 9-20 20s9 20 20 20 20-9 20-20-9-20-20-20zm0 37c-10.1 0-18.2-8.2-18.2-18.2C2.5 10.1 10.7 2 20.8 2S39 10.1 39 20.2s-8.2 18.3-18.2 18.3z" fill="#EBCB00"/><ellipse id="XMLID_7672_" class="st8" cx="20.8" cy="5.5" rx="6" ry="1.5" fill="#FFF48C"/><ellipse id="XMLID_7671_" class="st12" cx="20.8" cy="45" rx="16" ry="1.5" fill="#45413C" opacity="0.15"/><circle id="XMLID_7670_" class="st7" cx="20.8" cy="21.5" r="20" fill="none" stroke="#45413C" stroke-linecap="round" stroke-linejoin="round" stroke-miterlimit="10"/><ellipse id="XMLID_7669_" class="st13" cx="32.8" cy="26.5" rx="2.5" ry="1.5" fill="#FFAA54"/><ellipse id="XMLID_7668_" class="st13" cx="8.7" cy="26.5" rx="2.5" ry="1.5" fill="#FFAA54"/><path id="XMLID_7667_" class="st7" d="M6.8 22.7c0-1 .8-1.8 1.8-1.8s1.8.8 1.8 1.8" fill="none" stroke="#45413C" stroke-linecap="round" stroke-linejoin="round" stroke-miterlimit="10"/><path id="XMLID_7666_" class="st7" d="M31.2 22.7c0-1 .8-1.8 1.8-1.8s1.8.8 1.8 1.8" fill="none" stroke="#45413C" stroke-linecap="round" stroke-linejoin="round" stroke-miterlimit="10"/><path id="XMLID_7665_" class="st11" d="M42.4 30.6l4.5-1.5c.2-.1.3-.2.3-.4s-.1-.3-.3-.4l-3.7-1.2c-.5-.2-.9-.6-1.1-1.1l-1.2-3.7c-.1-.2-.2-.3-.4-.3s-.3.1-.4.3L38.9 26c-.2.5-.6.9-1.1 1.1L34 28.3c-.2.1-.3.2-.3.4s.1.3.3.4l3.7 1.2c.5.2.9.6 1.1 1.1l1.2 3.7c.1.2.2.3.4.3s.3-.1.4-.3l1.6-4.5z" fill="#FFF" stroke="#45413C" stroke-linecap="round" stroke-linejoin="round" stroke-miterlimit="10"/><g id="XMLID_7658_"><path id="XMLID_7664_" class="st11" d="M20.8 36.5c9.2 0 10.4-3.8 9.9-7-.3-1.9-2.5-3.1-4.6-2.4-1.5.5-3.4.8-5.3.8s-3.8-.3-5.3-.8c-2-.7-4.2.5-4.6 2.4-.6 3.2.6 7 9.9 7z" fill="#FFF" stroke="#45413C" stroke-linecap="round" stroke-linejoin="round" stroke-miterlimit="10"/><g id="XMLID_7659_"><path id="XMLID_7663_" class="st7" d="M30.7 30.2c-1 .5-2.5 1-4.6 1.4-1.5.2-3.2.4-5.4.4s-3.9-.2-5.4-.4c-2.1-.4-3.6-.9-4.6-1.4" fill="none" stroke="#45413C" stroke-linecap="round" stroke-linejoin="round" stroke-miterlimit="10"/><path id="XMLID_7662_" class="st7" fill="none" stroke="#45413C" stroke-linecap="round" stroke-linejoin="round" stroke-miterlimit="10" d="M16 27.4l-.6 4.2-.7 4.1"/><path id="XMLID_7661_" class="st7" fill="none" stroke="#45413C" stroke-linecap="round" stroke-linejoin="round" stroke-miterlimit="10" d="M20.8 36.5V28"/><path id="XMLID_7660_" class="st7" fill="none" stroke="#45413C" stroke-linecap="round" stroke-linejoin="round" stroke-miterlimit="10" d="M25.5 27.4l.6 4.2.7 4.1"/></g></g></g></g><metadata><rdf:RDF xmlns:rdf="http://www.w3.org/1999/02/22-rdf-syntax-ns#" xmlns:rdfs="http://www.w3.org/2000/01/rdf-schema#" xmlns:dc="http://purl.org/dc/elements/1.1/"><rdf:Description about="https://iconscout.com/legal#licenses" dc:title="happy,teeth,smile,face,emoji" dc:description="happy,teeth,smile,face,emoji" dc:publisher="Iconscout" dc:date="2017-09-21" dc:format="image/svg+xml" dc:language="en"><dc:creator><rdf:Bag><rdf:li>Vincent Le Moign</rdf:li></rdf:Bag></dc:creator></rdf:Description></rdf:RDF></metadata></svg>